<svg width="50" height="44" viewBox="0 0 50 44" fill="none" xmlns="http://www.w3.org/2000/svg">
<path d="M26.0416 0L17.3611 43.4028H8.68052L-4.00543e-05 0H8.68052L13.0208 21.7014L17.3611 0H26.0416Z" fill="#BB2649"/>
<path d="M41.3194 0C43.6217 0 45.8296 0.914556 47.4575 2.54248C49.0854 4.1704 50 6.37833 50 8.68056V17.3611C50 19.6633 49.0854 21.8713 47.4575 23.4992C45.8296 25.1271 43.6217 26.0417 41.3194 26.0417H32.6389V34.7222H50V43.4028H32.6389C30.3367 43.4028 28.1287 42.4882 26.5008 40.8603C24.8729 39.2324 23.9583 37.0244 23.9583 34.7222V26.0417C23.9583 23.7394 24.8729 21.5315 26.5008 19.9036C28.1287 18.2757 30.3367 17.3611 32.6389 17.3611H41.3194V8.68056H23.9583V0H41.3194Z" fill="#BB2649"/>
</svg>
