<svg width="169" height="44" viewBox="0 0 169 44" fill="none" xmlns="http://www.w3.org/2000/svg">
<path d="M26.0415 0L17.3609 43.4028H8.68039L-0.000162125 0H8.68039L13.0207 21.7014L17.3609 0H26.0415Z" fill="#BB2649"/>
<path d="M41.3194 0C43.6217 0 45.8296 0.914556 47.4575 2.54248C49.0854 4.1704 50 6.37833 50 8.68056V17.3611C50 19.6633 49.0854 21.8713 47.4575 23.4992C45.8296 25.1271 43.6217 26.0417 41.3194 26.0417H32.6389V34.7222H50V43.4028H32.6389C30.3367 43.4028 28.1287 42.4882 26.5008 40.8603C24.8729 39.2324 23.9583 37.0244 23.9583 34.7222V26.0417C23.9583 23.7394 24.8729 21.5315 26.5008 19.9036C28.1287 18.2757 30.3367 17.3611 32.6389 17.3611H41.3194V8.68056H23.9583V0H41.3194Z" fill="#BB2649"/>
<path d="M70.33 30.06C70.33 31.32 70.02 32.42 69.4 33.36C68.78 34.3 67.88 35.03 66.7 35.55C65.54 36.05 64.12 36.3 62.44 36.3C61.7 36.3 60.97 36.25 60.25 36.15C59.55 36.05 58.87 35.91 58.21 35.73C57.57 35.53 56.96 35.29 56.38 35.01V30.78C57.4 31.22 58.45 31.63 59.53 32.01C60.63 32.37 61.72 32.55 62.8 32.55C63.54 32.55 64.13 32.45 64.57 32.25C65.03 32.05 65.36 31.78 65.56 31.44C65.78 31.1 65.89 30.71 65.89 30.27C65.89 29.73 65.7 29.27 65.32 28.89C64.96 28.51 64.47 28.16 63.85 27.84C63.23 27.5 62.52 27.14 61.72 26.76C61.22 26.52 60.68 26.24 60.1 25.92C59.52 25.58 58.96 25.17 58.42 24.69C57.9 24.19 57.47 23.59 57.13 22.89C56.79 22.19 56.62 21.35 56.62 20.37C56.62 19.09 56.91 18 57.49 17.1C58.09 16.18 58.93 15.48 60.01 15C61.11 14.52 62.4 14.28 63.88 14.28C65 14.28 66.06 14.41 67.06 14.67C68.08 14.93 69.14 15.3 70.24 15.78L68.77 19.32C67.79 18.92 66.91 18.61 66.13 18.39C65.35 18.17 64.55 18.06 63.73 18.06C63.17 18.06 62.69 18.15 62.29 18.33C61.89 18.51 61.58 18.76 61.36 19.08C61.16 19.4 61.06 19.78 61.06 20.22C61.06 20.72 61.21 21.15 61.51 21.51C61.81 21.85 62.26 22.18 62.86 22.5C63.46 22.82 64.21 23.2 65.11 23.64C66.21 24.16 67.14 24.7 67.9 25.26C68.68 25.82 69.28 26.48 69.7 27.24C70.12 28 70.33 28.94 70.33 30.06ZM82.2334 36H72.4834V33.42L75.0934 32.22V18.36L72.4834 17.16V14.58H82.2334V17.16L79.6234 18.36V32.22L82.2334 33.42V36ZM102.684 14.58L95.3936 36H90.4436L83.1836 14.58H87.7736L91.7936 27.33C91.8736 27.55 91.9836 27.96 92.1236 28.56C92.2836 29.14 92.4436 29.76 92.6036 30.42C92.7636 31.06 92.8736 31.6 92.9336 32.04C92.9936 31.6 93.0936 31.06 93.2336 30.42C93.3936 29.76 93.5536 29.14 93.7136 28.56C93.8736 27.96 93.9836 27.55 94.0436 27.33L98.0936 14.58H102.684ZM117.304 36L115.744 30.9H107.944L106.384 36H101.494L109.054 14.49H114.604L122.194 36H117.304ZM113.104 22.11C113.004 21.77 112.874 21.34 112.714 20.82C112.554 20.3 112.394 19.77 112.234 19.23C112.074 18.69 111.944 18.22 111.844 17.82C111.744 18.22 111.604 18.72 111.424 19.32C111.264 19.9 111.104 20.46 110.944 21C110.804 21.52 110.694 21.89 110.614 22.11L109.084 27.09H114.664L113.104 22.11ZM143.897 36H138.137L128.807 19.8H128.687C128.707 20.3 128.727 20.81 128.747 21.33C128.767 21.83 128.787 22.34 128.807 22.86C128.847 23.36 128.877 23.87 128.897 24.39C128.917 24.89 128.937 25.4 128.957 25.92V36H124.907V14.58H130.637L139.937 30.63H140.027C140.007 30.13 139.987 29.64 139.967 29.16C139.947 28.66 139.927 28.17 139.907 27.69C139.907 27.19 139.897 26.7 139.877 26.22C139.857 25.72 139.837 25.22 139.817 24.72V14.58H143.897V36ZM157.441 23.97H165.931V35.07C164.811 35.45 163.641 35.75 162.421 35.97C161.221 36.19 159.851 36.3 158.311 36.3C156.191 36.3 154.381 35.88 152.881 35.04C151.401 34.2 150.271 32.96 149.491 31.32C148.731 29.68 148.351 27.66 148.351 25.26C148.351 23.02 148.781 21.08 149.641 19.44C150.521 17.8 151.791 16.53 153.451 15.63C155.111 14.73 157.141 14.28 159.541 14.28C160.681 14.28 161.801 14.4 162.901 14.64C164.001 14.88 165.001 15.2 165.901 15.6L164.401 19.23C163.741 18.89 162.991 18.61 162.151 18.39C161.311 18.17 160.431 18.06 159.511 18.06C158.191 18.06 157.041 18.36 156.061 18.96C155.101 19.56 154.351 20.41 153.811 21.51C153.291 22.59 153.031 23.87 153.031 25.35C153.031 26.75 153.221 27.99 153.601 29.07C153.981 30.15 154.581 31 155.401 31.62C156.221 32.22 157.291 32.52 158.611 32.52C159.051 32.52 159.431 32.51 159.751 32.49C160.091 32.45 160.401 32.41 160.681 32.37C160.961 32.31 161.231 32.26 161.491 32.22V27.75H157.441V23.97Z" fill="#4E6C50"/>
</svg>
